<svg xmlns="http://www.w3.org/2000/svg" width="338.758" height="365.953" viewBox="0 0 338.758 365.953"><defs><style>.a{fill:#005b6d;}.b{fill:#fff;}.c{fill:#d0d0d0;}.d{fill:#00aca9;}</style></defs><g transform="translate(-1137.952 -13466.606)"><g transform="matrix(0.974, 0.225, -0.225, 0.974, 1209.212, 13459.548)"><path class="a" d="M150.429,0H135.94C131.358,1.358,141.207-4.2,0,81.623v90.291H286.078V81.623C145.476-4.023,155.027,1.363,150.429,0Z" transform="translate(0 49.999)"/><path class="b" d="M211.19,0H12.131A12.131,12.131,0,0,0,0,12.131V232.375H223.32V12.131A12.131,12.131,0,0,0,211.19,0Z" transform="translate(31.379 0)"/><g transform="translate(62.411 29.603)"><path class="c" d="M150.74,20.4H10.2A10.2,10.2,0,1,1,10.2,0H150.74a10.2,10.2,0,1,1,0,20.4Z"/></g><g transform="translate(62.411 78.385)"><path class="c" d="M150.74,20.4H10.2A10.2,10.2,0,0,1,10.2,0H150.74a10.2,10.2,0,1,1,0,20.4Z"/></g><g transform="translate(62.411 127.167)"><path class="c" d="M150.74,20.4H10.2A10.2,10.2,0,1,1,10.2,0H150.74a10.2,10.2,0,1,1,0,20.4Z"/></g><path class="d" d="M129.631,78.964,0,0V169.22a15.935,15.935,0,0,0,15.934,15.934H270.143a15.935,15.935,0,0,0,15.935-15.934V0L156.136,78.977a25.5,25.5,0,0,1-26.5-.013Z" transform="translate(0 131.622)"/><path class="d" d="M0,113.36A15.883,15.883,0,0,0,11.428,118.2H265.637a15.883,15.883,0,0,0,11.428-4.836C166.479-5.309,177.71,6.732,171.4,0L151.629,12.018a25.5,25.5,0,0,1-26.5-.013L105.573.1C91.568,15.075,75.415,32.432,0,113.36Z" transform="translate(4.507 198.581)"/></g></g></svg>